<?xml version="1.0" encoding="utf-8"?>
<!-- Generator: Adobe Illustrator 21.1.0, SVG Export Plug-In . SVG Version: 6.00 Build 0)  -->
<svg version="1.1" id="Layer_1" xmlns="http://www.w3.org/2000/svg" xmlns:xlink="http://www.w3.org/1999/xlink" x="0px" y="0px"
	 viewBox="0 0 394.8 64.2" style="enable-background:new 0 0 394.8 64.2;" xml:space="preserve">
<style type="text/css">
	.st0{fill:#1D1D1B;}
	.st1{clip-path:url(#SVGID_2_);}
	.st2{fill:#1D1D1B;stroke:#1D1D1B;stroke-width:0.5;stroke-miterlimit:10;}
</style>
<g>
	<path class="st0" d="M22.1,29.7v10.6h-3V29.7l-10-14.6h3.6l8.1,12.2l8.5-12.2h3.5L22.1,29.7z"/>
	<path class="st0" d="M60.8,40.2L61,18.5l-9.1,21.8h-1.8l-9.4-22l0.4,22h-3V15.1h4.1l8.9,20.8l8.4-20.8h4.1v25.2H60.8z"/>
	<path class="st0" d="M90.8,40.2L81,27.5l-4.9,4.8v8h-3V15.1h3v13.8l13.7-13.8h4L83.1,25.5l11.4,14.7H90.8z"/>
	<path class="st0" d="M101.5,40.2V15.1h18.1v2.7h-15.1v8.2h13.7v2.6h-13.7v9.1h16.2v2.7H101.5z"/>
	<path class="st0" d="M154.2,40.2h-2.5l-10.2-25.2h3.2l8.3,21.2l8.5-21.2h3.1L154.2,40.2z"/>
	<path class="st0" d="M171.2,40.2V15.1h18.1v2.7h-15.1v8.2h13.7v2.6h-13.7v9.1h16.2v2.7H171.2z"/>
	<path class="st0" d="M214.8,40.2l-7.5-10.6h-6.3v10.6h-3V15.1h8.6c4.1,0,5.7,0.1,7.1,0.6c2.7,1,4.5,3.5,4.5,6.6
		c0,4.2-2.7,6.7-7.6,7.2l8.1,10.8H214.8z M213.2,18.6c-0.6-0.4-1.2-0.8-2-0.8c-1.1-0.2-2-0.2-4.7-0.2h-5.5v9.6h5.5
		c0.3,0,0.9,0,1.6,0c2.2,0,2.9-0.2,4-0.5c1.8-0.7,2.9-2.2,2.9-4.4C215,20.7,214.3,19.4,213.2,18.6z"/>
	<path class="st0" d="M235.1,17.6v22.7h-3V17.6h-8.9v-2.5h20.6v2.5H235.1z"/>
	<path class="st0" d="M250.7,40.2V15.1h18.1v2.7h-15.1v8.2h13.7v2.6h-13.7v9.1h16.2v2.7H250.7z"/>
	<path class="st0" d="M277.3,40.2V15.1h3v22.5h15v2.7H277.3z"/>
	<path class="st0" d="M325,40.2l0.2-21.8l-9.1,21.8h-1.8l-9.3-22l0.4,22h-3V15.1h4.1l8.9,20.8l8.4-20.8h4.1v25.2H325z"/>
	<path class="st0" d="M355.2,40.2l-3.2-7.5h-11.1l-3.2,7.5h-3l10.8-25.2h2.1l10.6,25.2H355.2z M346.6,19.3l-4.7,11.1h9.2L346.6,19.3
		z"/>
	<path class="st0" d="M383.5,40.2L368,18.2l0.2,22.1h-2.9V15.1h3.8l14.8,21l-0.2-21h2.8v25.2H383.5z"/>
</g>
<g>
	<defs>
		<rect id="SVGID_1_" x="11.9" y="-9.1" width="374.5" height="62.7"/>
	</defs>
	<clipPath id="SVGID_2_">
		<use xlink:href="#SVGID_1_"  style="overflow:visible;"/>
	</clipPath>
	<g class="st1">
		<rect x="8.6" y="52.1" class="st2" width="380" height="2"/>
	</g>
</g>
</svg>
